<svg xmlns="http://www.w3.org/2000/svg" width="512" height="512" aria-label="MULTINICHE AI" viewBox="0 0 512 512"><title>MULTINICHE AI</title><defs><radialGradient id="b" cx="50%" cy="46%" r="62%"><stop offset="0" stop-opacity=".72"/><stop offset=".55" stop-opacity=".35"/><stop offset="1" stop-opacity="0"/></radialGradient><linearGradient id="a" x1="0" x2="0" y1="0" y2="1"><stop offset="0" stop-color="#041b0d"/><stop offset="1" stop-color="#00060a"/></linearGradient><filter id="c" width="180%" height="180%" x="-40%" y="-40%"><feGaussianBlur result="b" stdDeviation="7"/><feMerge><feMergeNode in="b"/><feMergeNode in="SourceGraphic"/></feMerge></filter></defs><rect width="512" height="512" fill="url(#a)" rx="0"/><g opacity=".9"><rect width="14" height="4" x="21.4" y="96" fill="#00ff41" opacity=".425" rx="2"/><rect width="8.4" height="4" x="21.4" y="104" fill="#00ff41" opacity=".34" rx="2"/><rect width="14" height="4" x="21.4" y="110" fill="#00ff41" opacity=".383" rx="2"/><rect width="13" height="18" x="21.9" y="66" fill="none" stroke="#23c552" stroke-width="3" opacity=".173" rx="3"/><rect width="14" height="18" x="21.4" y="36" fill="none" stroke="#23c552" stroke-width="3" opacity=".145" rx="3"/><rect width="14" height="18" x="21.4" y="6" fill="none" stroke="#23c552" stroke-width="3" opacity=".118" rx="3"/><rect width="13" height="18" x="78.8" y="336" fill="none" stroke="#00ff41" stroke-width="3" opacity=".425" rx="3"/><rect width="4" height="18" x="83.3" y="306" fill="#23c552" opacity=".173" rx="1.5"/><rect width="16" height="18" x="77.3" y="276" fill="none" stroke="#23c552" stroke-width="3" opacity=".145" rx="3"/><rect width="11" height="18" x="79.8" y="246" fill="none" stroke="#23c552" stroke-width="3" opacity=".118" rx="3"/><rect width="4" height="18" x="83.3" y="216" fill="#23c552" opacity=".09" rx="1.5"/><rect width="12" height="18" x="79.3" y="186" fill="none" stroke="#23c552" stroke-width="3" opacity=".063" rx="3"/><rect width="12" height="18" x="136.2" y="216" fill="none" stroke="#00ff41" stroke-width="3" opacity=".425" rx="3"/><rect width="4" height="18" x="140.2" y="186" fill="#23c552" opacity=".173" rx="1.5"/><rect width="4" height="18" x="140.2" y="156" fill="#23c552" opacity=".145" rx="1.5"/><rect width="4" height="18" x="140.2" y="126" fill="#23c552" opacity=".118" rx="1.5"/><rect width="4" height="18" x="140.2" y="96" fill="#23c552" opacity=".09" rx="1.5"/><rect width="13" height="18" x="135.7" y="66" fill="none" stroke="#23c552" stroke-width="3" opacity=".063" rx="3"/><rect width="4" height="18" x="140.2" y="36" fill="#23c552" opacity=".035" rx="1.5"/><rect width="4" height="18" x="140.2" y="6" fill="#23c552" opacity=".025" rx="1.5"/><rect width="4" height="18" x="197.1" y="156" fill="#00ff41" opacity=".425" rx="1.5"/><rect width="13" height="18" x="192.6" y="126" fill="none" stroke="#23c552" stroke-width="3" opacity=".173" rx="3"/><rect width="16" height="4" x="191.1" y="96" fill="#23c552" opacity=".145" rx="2"/><rect width="9.6" height="4" x="191.1" y="104" fill="#23c552" opacity=".116" rx="2"/><rect width="16" height="4" x="191.1" y="110" fill="#23c552" opacity=".131" rx="2"/><rect width="11" height="18" x="193.6" y="66" fill="none" stroke="#23c552" stroke-width="3" opacity=".118" rx="3"/><rect width="4" height="18" x="197.1" y="36" fill="#23c552" opacity=".09" rx="1.5"/><rect width="4" height="18" x="197.1" y="6" fill="#23c552" opacity=".063" rx="1.5"/><rect width="4" height="18" x="254" y="126" fill="#00ff41" opacity=".425" rx="1.5"/><rect width="4" height="18" x="254" y="96" fill="#23c552" opacity=".173" rx="1.5"/><rect width="14" height="18" x="249" y="66" fill="none" stroke="#23c552" stroke-width="3" opacity=".145" rx="3"/><rect width="14" height="18" x="249" y="36" fill="none" stroke="#23c552" stroke-width="3" opacity=".118" rx="3"/><rect width="4" height="18" x="254" y="6" fill="#23c552" opacity=".09" rx="1.5"/><rect width="4" height="18" x="310.9" y="126" fill="#00ff41" opacity=".425" rx="1.5"/><rect width="14" height="18" x="305.9" y="96" fill="none" stroke="#23c552" stroke-width="3" opacity=".173" rx="3"/><rect width="15" height="18" x="305.4" y="66" fill="none" stroke="#23c552" stroke-width="3" opacity=".145" rx="3"/><rect width="12" height="4" x="306.9" y="36" fill="#23c552" opacity=".118" rx="2"/><rect width="7.2" height="4" x="306.9" y="44" fill="#23c552" opacity=".094" rx="2"/><rect width="12" height="4" x="306.9" y="50" fill="#23c552" opacity=".106" rx="2"/><rect width="14" height="4" x="305.9" y="6" fill="#23c552" opacity=".09" rx="2"/><rect width="8.4" height="4" x="305.9" y="14" fill="#23c552" opacity=".072" rx="2"/><rect width="14" height="4" x="305.9" y="20" fill="#23c552" opacity=".081" rx="2"/><rect width="15" height="4" x="362.3" y="156" fill="#00ff41" opacity=".425" rx="2"/><rect width="9" height="4" x="362.3" y="164" fill="#00ff41" opacity=".34" rx="2"/><rect width="15" height="4" x="362.3" y="170" fill="#00ff41" opacity=".383" rx="2"/><rect width="14" height="4" x="362.8" y="126" fill="#23c552" opacity=".173" rx="2"/><rect width="8.4" height="4" x="362.8" y="134" fill="#23c552" opacity=".138" rx="2"/><rect width="14" height="4" x="362.8" y="140" fill="#23c552" opacity=".155" rx="2"/><rect width="13" height="18" x="363.3" y="96" fill="none" stroke="#23c552" stroke-width="3" opacity=".145" rx="3"/><rect width="4" height="18" x="367.8" y="66" fill="#23c552" opacity=".118" rx="1.5"/><rect width="4" height="18" x="367.8" y="36" fill="#23c552" opacity=".09" rx="1.5"/><rect width="13" height="4" x="363.3" y="6" fill="#23c552" opacity=".063" rx="2"/><rect width="7.8" height="4" x="363.3" y="14" fill="#23c552" opacity=".05" rx="2"/><rect width="13" height="4" x="363.3" y="20" fill="#23c552" opacity=".056" rx="2"/><rect width="4" height="18" x="424.7" y="306" fill="#00ff41" opacity=".425" rx="1.5"/><rect width="16" height="4" x="418.7" y="276" fill="#23c552" opacity=".173" rx="2"/><rect width="9.6" height="4" x="418.7" y="284" fill="#23c552" opacity=".138" rx="2"/><rect width="16" height="4" x="418.7" y="290" fill="#23c552" opacity=".155" rx="2"/><rect width="4" height="18" x="424.7" y="246" fill="#23c552" opacity=".145" rx="1.5"/><rect width="14" height="18" x="419.7" y="216" fill="none" stroke="#23c552" stroke-width="3" opacity=".118" rx="3"/><rect width="14" height="18" x="419.7" y="186" fill="none" stroke="#23c552" stroke-width="3" opacity=".09" rx="3"/><rect width="4" height="18" x="424.7" y="156" fill="#23c552" opacity=".063" rx="1.5"/><rect width="12" height="18" x="477.6" y="216" fill="none" stroke="#00ff41" stroke-width="3" opacity=".425" rx="3"/><rect width="11" height="18" x="478.1" y="186" fill="none" stroke="#23c552" stroke-width="3" opacity=".173" rx="3"/><rect width="4" height="18" x="481.6" y="156" fill="#23c552" opacity=".145" rx="1.5"/><rect width="14" height="18" x="476.6" y="126" fill="none" stroke="#23c552" stroke-width="3" opacity=".118" rx="3"/><rect width="12" height="18" x="477.6" y="96" fill="none" stroke="#23c552" stroke-width="3" opacity=".09" rx="3"/><rect width="13" height="18" x="477.1" y="66" fill="none" stroke="#23c552" stroke-width="3" opacity=".063" rx="3"/><rect width="12" height="4" x="477.6" y="36" fill="#23c552" opacity=".035" rx="2"/><rect width="7.2" height="4" x="477.6" y="44" fill="#23c552" opacity=".028" rx="2"/><rect width="12" height="4" x="477.6" y="50" fill="#23c552" opacity=".032" rx="2"/></g><rect width="512" height="512" fill="url(#b)" rx="0"/><g fill="none" stroke-linecap="round" stroke-linejoin="round" transform="matrix(.78 0 0 .78 56.32 56.32)"><path stroke="#00ff41" stroke-width="40" d="m182 168 104 88-104 88" filter="url(#c)"/><rect width="120" height="30" x="300" y="322" fill="#00ff41" filter="url(#c)" rx="15"/></g></svg>